<svg width="225" height="41" viewBox="0 0 225 41" fill="none" xmlns="http://www.w3.org/2000/svg">
<g clip-path="url(#clip0_683_1376)">
<g clip-path="url(#clip1_683_1376)">
<path d="M15.0202 26.8333L8.57579 20.3889M8.57579 20.3889L15.0202 13.9444M8.57579 20.3889H31.1313M23.0758 26.8333V28.4444C23.0758 29.7263 22.5666 30.9557 21.6601 31.8621C20.7537 32.7686 19.5243 33.2778 18.2425 33.2778H6.96468C5.6828 33.2778 4.45342 32.7686 3.547 31.8621C2.64057 30.9557 2.13135 29.7263 2.13135 28.4444V12.3333C2.13135 11.0515 2.64057 9.82208 3.547 8.91565C4.45342 8.00922 5.6828 7.5 6.96468 7.5H18.2425C19.5243 7.5 20.7537 8.00922 21.6601 8.91565C22.5666 9.82208 23.0758 11.0515 23.0758 12.3333V13.9444" stroke="#8F37F7" stroke-width="3" stroke-linecap="round" stroke-linejoin="round"/>
</g>
</g>
<path d="M39.6332 32L46.2332 10.4H52.3232L58.9232 32H54.7232L48.8432 12.95H49.6232L43.8332 32H39.6332ZM43.5932 27.5V23.69H54.9932V27.5H43.5932ZM60.8317 32V15.8H68.4217C69.0217 15.8 69.5467 15.835 69.9967 15.905C70.4467 15.965 70.8217 16.04 71.1217 16.13C71.8617 16.35 72.5367 16.78 73.1467 17.42C73.7567 18.06 74.0617 18.99 74.0617 20.21C74.0617 20.93 73.9467 21.515 73.7167 21.965C73.4867 22.405 73.1817 22.77 72.8017 23.06C72.6217 23.19 72.4417 23.3 72.2617 23.39C72.0817 23.48 71.9017 23.55 71.7217 23.6C72.1417 23.66 72.5217 23.77 72.8617 23.93C73.4017 24.17 73.8717 24.55 74.2717 25.07C74.6717 25.58 74.8717 26.34 74.8717 27.35C74.8717 28.43 74.6067 29.35 74.0767 30.11C73.5567 30.87 72.7717 31.4 71.7217 31.7C71.3617 31.8 70.9367 31.875 70.4467 31.925C69.9667 31.975 69.4617 32 68.9317 32H60.8317ZM64.9717 28.91H68.6317C68.8417 28.91 69.0567 28.89 69.2767 28.85C69.5067 28.8 69.7117 28.74 69.8917 28.67C70.1817 28.55 70.3867 28.345 70.5067 28.055C70.6367 27.765 70.7017 27.47 70.7017 27.17C70.7017 26.75 70.6067 26.42 70.4167 26.18C70.2367 25.94 70.0317 25.77 69.8017 25.67C69.6117 25.58 69.4017 25.53 69.1717 25.52C68.9517 25.5 68.7717 25.49 68.6317 25.49H64.9717V28.91ZM64.9717 22.34H67.4617C67.7817 22.34 68.0817 22.325 68.3617 22.295C68.6517 22.255 68.8917 22.19 69.0817 22.1C69.3417 21.98 69.5367 21.79 69.6667 21.53C69.7967 21.26 69.8617 20.96 69.8617 20.63C69.8617 20.28 69.7867 19.965 69.6367 19.685C69.4967 19.395 69.2617 19.2 68.9317 19.1C68.7117 19.02 68.4317 18.975 68.0917 18.965C67.7617 18.955 67.5517 18.95 67.4617 18.95H64.9717V22.34ZM81.0932 32V19.4H75.7832V15.8H90.4832V19.4H85.1732V32H81.0932ZM99.5814 32.45C97.9514 32.45 96.5214 32.085 95.2914 31.355C94.0614 30.625 93.1014 29.62 92.4114 28.34C91.7314 27.05 91.3914 25.57 91.3914 23.9C91.3914 22.21 91.7414 20.725 92.4414 19.445C93.1414 18.155 94.1064 17.15 95.3364 16.43C96.5664 15.71 97.9814 15.35 99.5814 15.35C101.211 15.35 102.641 15.715 103.871 16.445C105.111 17.175 106.076 18.185 106.766 19.475C107.456 20.755 107.801 22.23 107.801 23.9C107.801 25.58 107.451 27.065 106.751 28.355C106.061 29.635 105.096 30.64 103.856 31.37C102.626 32.09 101.201 32.45 99.5814 32.45ZM99.5814 28.64C100.891 28.64 101.866 28.2 102.506 27.32C103.156 26.43 103.481 25.29 103.481 23.9C103.481 22.46 103.151 21.31 102.491 20.45C101.841 19.59 100.871 19.16 99.5814 19.16C98.6914 19.16 97.9614 19.36 97.3914 19.76C96.8214 20.16 96.3964 20.715 96.1164 21.425C95.8464 22.135 95.7114 22.96 95.7114 23.9C95.7114 25.35 96.0364 26.505 96.6864 27.365C97.3464 28.215 98.3114 28.64 99.5814 28.64ZM118.3 32.45C116.69 32.45 115.345 32.075 114.265 31.325C113.185 30.575 112.37 29.555 111.82 28.265C111.28 26.975 111.01 25.52 111.01 23.9C111.01 22.28 111.28 20.825 111.82 19.535C112.36 18.245 113.155 17.225 114.205 16.475C115.255 15.725 116.55 15.35 118.09 15.35C119.64 15.35 120.99 15.72 122.14 16.46C123.29 17.2 124.18 18.215 124.81 19.505C125.45 20.785 125.77 22.25 125.77 23.9C125.77 25.52 125.455 26.975 124.825 28.265C124.205 29.555 123.335 30.575 122.215 31.325C121.095 32.075 119.79 32.45 118.3 32.45ZM110.32 39.2V15.8H113.92V26.9H114.43V39.2H110.32ZM117.64 28.82C118.52 28.82 119.24 28.6 119.8 28.16C120.36 27.72 120.775 27.13 121.045 26.39C121.315 25.64 121.45 24.81 121.45 23.9C121.45 23 121.31 22.18 121.03 21.44C120.75 20.69 120.315 20.095 119.725 19.655C119.145 19.205 118.4 18.98 117.49 18.98C116.64 18.98 115.95 19.185 115.42 19.595C114.9 20.005 114.52 20.58 114.28 21.32C114.04 22.06 113.92 22.92 113.92 23.9C113.92 24.88 114.04 25.74 114.28 26.48C114.52 27.22 114.91 27.795 115.45 28.205C116 28.615 116.73 28.82 117.64 28.82ZM142.751 15.8V32H138.851V22.1L131.531 32H128.291V15.8H132.191V25.37L139.541 15.8H142.751ZM151.934 32.45C150.424 32.45 149.024 32.14 147.734 31.52C146.454 30.89 145.444 30.03 144.704 28.94L147.914 26.78C148.484 27.36 149.094 27.815 149.744 28.145C150.404 28.475 151.124 28.64 151.904 28.64C152.714 28.64 153.344 28.465 153.794 28.115C154.254 27.765 154.484 27.3 154.484 26.72C154.484 26.16 154.299 25.78 153.929 25.58C153.569 25.38 153.109 25.275 152.549 25.265C151.999 25.255 151.444 25.25 150.884 25.25H149.924V22.07H150.884C151.724 22.07 152.439 22 153.029 21.86C153.619 21.71 153.914 21.3 153.914 20.63C153.914 20.07 153.709 19.68 153.299 19.46C152.889 19.24 152.414 19.13 151.874 19.13C151.154 19.13 150.429 19.285 149.699 19.595C148.969 19.905 148.304 20.27 147.704 20.69L145.454 17.9C146.374 17.13 147.394 16.515 148.514 16.055C149.644 15.585 150.824 15.35 152.054 15.35C153.094 15.35 154.074 15.53 154.994 15.89C155.924 16.25 156.674 16.795 157.244 17.525C157.824 18.245 158.114 19.15 158.114 20.24C158.114 20.94 157.974 21.625 157.694 22.295C157.414 22.965 156.934 23.63 156.254 24.29L156.224 23C156.724 23.26 157.154 23.595 157.514 24.005C157.884 24.405 158.164 24.87 158.354 25.4C158.554 25.93 158.654 26.51 158.654 27.14C158.654 28.3 158.344 29.275 157.724 30.065C157.104 30.855 156.284 31.45 155.264 31.85C154.244 32.25 153.134 32.45 151.934 32.45ZM165.715 32.45C164.555 32.45 163.57 32.23 162.76 31.79C161.96 31.34 161.35 30.745 160.93 30.005C160.52 29.255 160.315 28.43 160.315 27.53C160.315 26.78 160.43 26.095 160.66 25.475C160.89 24.855 161.26 24.31 161.77 23.84C162.29 23.36 162.985 22.96 163.855 22.64C164.455 22.42 165.17 22.225 166 22.055C166.83 21.885 167.77 21.725 168.82 21.575C169.87 21.415 171.025 21.24 172.285 21.05L170.815 21.86C170.815 20.9 170.585 20.195 170.125 19.745C169.665 19.295 168.895 19.07 167.815 19.07C167.215 19.07 166.59 19.215 165.94 19.505C165.29 19.795 164.835 20.31 164.575 21.05L160.885 19.88C161.295 18.54 162.065 17.45 163.195 16.61C164.325 15.77 165.865 15.35 167.815 15.35C169.245 15.35 170.515 15.57 171.625 16.01C172.735 16.45 173.575 17.21 174.145 18.29C174.465 18.89 174.655 19.49 174.715 20.09C174.775 20.69 174.805 21.36 174.805 22.1V32H171.235V28.67L171.745 29.36C170.955 30.45 170.1 31.24 169.18 31.73C168.27 32.21 167.115 32.45 165.715 32.45ZM166.585 29.24C167.335 29.24 167.965 29.11 168.475 28.85C168.995 28.58 169.405 28.275 169.705 27.935C170.015 27.595 170.225 27.31 170.335 27.08C170.545 26.64 170.665 26.13 170.695 25.55C170.735 24.96 170.755 24.47 170.755 24.08L171.955 24.38C170.745 24.58 169.765 24.75 169.015 24.89C168.265 25.02 167.66 25.14 167.2 25.25C166.74 25.36 166.335 25.48 165.985 25.61C165.585 25.77 165.26 25.945 165.01 26.135C164.77 26.315 164.59 26.515 164.47 26.735C164.36 26.955 164.305 27.2 164.305 27.47C164.305 27.84 164.395 28.16 164.575 28.43C164.765 28.69 165.03 28.89 165.37 29.03C165.71 29.17 166.115 29.24 166.585 29.24ZM191.395 35.6V32H177.925V15.8H182.005V28.19H188.305V15.8H192.385V28.4H195.475V35.6H191.395ZM197.427 13.55V9.95H201.507V13.55H197.427ZM197.427 32V15.8H201.507V32H197.427ZM214.794 32V26.84H212.184C211.844 26.84 211.379 26.835 210.789 26.825C210.209 26.805 209.664 26.75 209.154 26.66C207.864 26.43 206.804 25.87 205.974 24.98C205.154 24.09 204.744 22.88 204.744 21.35C204.744 19.86 205.139 18.66 205.929 17.75C206.719 16.84 207.774 16.26 209.094 16.01C209.634 15.9 210.189 15.84 210.759 15.83C211.339 15.81 211.814 15.8 212.184 15.8H218.874V32H214.794ZM204.354 32L208.014 26H212.214L208.614 32H204.354ZM211.734 23.69H214.794V18.95H211.734C211.554 18.95 211.354 18.96 211.134 18.98C210.924 19 210.704 19.04 210.474 19.1C210.194 19.18 209.934 19.33 209.694 19.55C209.454 19.76 209.259 20.02 209.109 20.33C208.959 20.63 208.884 20.96 208.884 21.32C208.884 21.89 209.054 22.375 209.394 22.775C209.734 23.165 210.114 23.42 210.534 23.54C210.744 23.6 210.954 23.64 211.164 23.66C211.384 23.68 211.574 23.69 211.734 23.69Z" fill="#8F37F7"/>
<defs>
<clipPath id="clip0_683_1376">
<rect x="0.131348" y="4.5" width="32" height="32" rx="8" fill="white"/>
</clipPath>
<clipPath id="clip1_683_1376">
<rect width="32" height="32" fill="white" transform="translate(0.131348 4.5)"/>
</clipPath>
</defs>
</svg>
