<svg width="21" height="20" viewBox="0 0 21 20" fill="none" xmlns="http://www.w3.org/2000/svg">
<g clip-path="url(#clip0_508_105)">
<rect x="11.4932" y="11.6665" width="1.66667" height="1.66667" rx="0.833333" fill="#EBEBEB"/>
<rect x="6.49316" y="9.1665" width="1.66667" height="5" rx="0.833333" fill="#EBEBEB"/>
<rect x="9.82715" y="10.8335" width="1.66667" height="5" rx="0.833333" transform="rotate(90 9.82715 10.8335)" fill="#EBEBEB"/>
<rect x="13.9932" y="10" width="1.66667" height="1.66667" rx="0.833333" fill="#EBEBEB"/>
<path d="M12.3265 6.6665V6.6665C12.3265 6.56667 12.3265 6.51676 12.3245 6.47217C12.2865 5.62133 11.7139 4.88789 10.8976 4.64467C10.8549 4.63193 10.8064 4.61982 10.7096 4.59561L10.6598 4.58317C10.5157 4.54714 10.4437 4.52913 10.3804 4.50878C9.60005 4.25761 9.05196 3.55565 8.99757 2.73765C8.99316 2.67137 8.99316 2.5971 8.99316 2.44854V1.6665" stroke="#EBEBEB" stroke-width="2" stroke-linecap="round"/>
<path d="M3.16016 11.6665C3.16016 9.53416 3.16016 8.46799 3.67677 7.73352C3.80977 7.54443 3.96492 7.37518 4.13825 7.23009C4.81152 6.6665 5.78884 6.6665 7.74349 6.6665H13.5768C15.5315 6.6665 16.5088 6.6665 17.1821 7.23009C17.3554 7.37518 17.5105 7.54443 17.6435 7.73352C18.1602 8.46799 18.1602 9.53416 18.1602 11.6665C18.1602 13.7988 18.1602 14.865 17.6435 15.5995C17.5105 15.7886 17.3554 15.9578 17.1821 16.1029C16.5088 16.6665 15.5315 16.6665 13.5768 16.6665H7.74349C5.78884 16.6665 4.81152 16.6665 4.13825 16.1029C3.96492 15.9578 3.80977 15.7886 3.67677 15.5995C3.16016 14.865 3.16016 13.7988 3.16016 11.6665Z" stroke="#EBEBEB" stroke-width="2"/>
</g>
<defs>
<clipPath id="clip0_508_105">
<rect width="20" height="20" fill="white" transform="translate(0.5)"/>
</clipPath>
</defs>
</svg>
