<svg width="20" height="20" viewBox="0 0 20 20" fill="none" xmlns="http://www.w3.org/2000/svg">
<g clip-path="url(#clip0_508_110)">
<path d="M8.38965 10H9.63965V13.3333H11.3063M9.63966 6.66667H9.64799M10.942 17.3861C11.912 17.215 12.8387 16.8546 13.6694 16.3254C14.5001 15.7962 15.2184 15.1086 15.7833 14.3018C16.3482 13.495 16.7487 12.5849 16.9619 11.6233C17.175 10.6617 17.1967 9.66759 17.0257 8.69764C16.8547 7.72769 16.4943 6.80092 15.9651 5.97025C15.4359 5.13958 14.7483 4.42128 13.9415 3.85636C13.1347 3.29144 12.2245 2.89095 11.2629 2.67778C10.3014 2.46461 9.30724 2.44291 8.33729 2.61394C7.36734 2.78497 6.44057 3.14537 5.6099 3.67456C4.77923 4.20376 4.06093 4.89138 3.49601 5.69818C2.93108 6.50497 2.5306 7.41514 2.31743 8.3767C2.10425 9.33827 2.08256 10.3324 2.25359 11.3024C2.42462 12.2723 2.78502 13.1991 3.31421 14.0297C3.84341 14.8604 4.53103 15.5787 5.33783 16.1436C6.14462 16.7086 7.05479 17.109 8.01635 17.3222C8.97792 17.5354 9.97206 17.5571 10.942 17.3861Z" stroke="#EBEBEB" stroke-width="2" stroke-linecap="round" stroke-linejoin="round"/>
</g>
<defs>
<clipPath id="clip0_508_110">
<rect width="20" height="20" fill="white"/>
</clipPath>
</defs>
</svg>
