<svg width="20" height="20" viewBox="0 0 20 20" fill="none" xmlns="http://www.w3.org/2000/svg">
<path d="M3.33301 6.66683L2.6259 7.37394L1.91879 6.66683L2.6259 5.95972L3.33301 6.66683ZM7.49967 16.8335C6.94739 16.8335 6.49967 16.3858 6.49967 15.8335C6.49967 15.2812 6.94739 14.8335 7.49967 14.8335L7.49967 16.8335ZM6.79257 11.5406L2.6259 7.37394L4.04011 5.95972L8.20678 10.1264L6.79257 11.5406ZM2.6259 5.95972L6.79257 1.79306L8.20678 3.20727L4.04011 7.37394L2.6259 5.95972ZM3.33301 5.66683L12.083 5.66683L12.083 7.66683L3.33301 7.66683L3.33301 5.66683ZM12.083 16.8335L7.49967 16.8335L7.49967 14.8335L12.083 14.8335L12.083 16.8335ZM17.6663 11.2502C17.6663 14.3338 15.1666 16.8335 12.083 16.8335L12.083 14.8335C14.062 14.8335 15.6663 13.2292 15.6663 11.2502L17.6663 11.2502ZM12.083 5.66683C15.1666 5.66683 17.6663 8.16657 17.6663 11.2502L15.6663 11.2502C15.6663 9.27114 14.062 7.66683 12.083 7.66683L12.083 5.66683Z" fill="#EBEBEB"/>
</svg>
