<svg width="23" height="20" viewBox="0 0 23 20" fill="none" xmlns="http://www.w3.org/2000/svg">
<path fill-rule="evenodd" clip-rule="evenodd" d="M1.58113 8.67527C7.75513 5.98535 11.8721 4.21199 13.932 3.3552C19.8136 0.908862 21.0357 0.483908 21.8323 0.469876C22.0075 0.46679 22.3992 0.510209 22.6529 0.716106C22.8672 0.889962 22.9262 1.12482 22.9544 1.28965C22.9826 1.45448 23.0177 1.82998 22.9898 2.12338C22.6711 5.47223 21.2919 13.599 20.5903 17.3497C20.2935 18.9368 19.7089 19.469 19.143 19.5211C17.9131 19.6342 16.9792 18.7083 15.788 17.9274C13.924 16.7055 12.8709 15.9449 11.0616 14.7526C8.97061 13.3747 10.3261 12.6173 11.5178 11.3796C11.8296 11.0557 17.2485 6.12681 17.3534 5.67969C17.3665 5.62377 17.3787 5.41532 17.2549 5.30525C17.131 5.19518 16.9483 5.23282 16.8164 5.26276C16.6294 5.30519 13.6517 7.27338 7.88309 11.1673C7.03787 11.7477 6.27229 12.0305 5.58635 12.0157C4.83017 11.9993 3.37557 11.5881 2.29422 11.2366C0.967909 10.8055 -0.0862189 10.5775 0.00557197 9.84535C0.0533823 9.46398 0.578568 9.07395 1.58113 8.67527Z" fill="#EBEBEB"/>
</svg>
