<svg width="191" height="37" viewBox="0 0 191 37" fill="none" xmlns="http://www.w3.org/2000/svg">
<g clip-path="url(#clip0_1290_5234)">
<g clip-path="url(#clip1_1290_5234)">
<path d="M16.3691 19L25.503 25.2863C26.0453 25.6594 26.3691 26.2755 26.3691 26.9338V31.5C26.3691 31.7761 26.1453 32 25.8691 32H6.86914C6.593 32 6.36914 31.7761 6.36914 31.5V26.9338C6.36914 26.2755 6.69303 25.6594 7.23526 25.2863L16.3691 19ZM16.3691 19L25.503 12.7137C26.0453 12.3406 26.3691 11.7245 26.3691 11.0662V6.5C26.3691 6.22386 26.1453 6 25.8691 6H6.86914C6.593 6 6.36914 6.22386 6.36914 6.5V11.0662C6.36914 11.7245 6.69303 12.3406 7.23526 12.7137L16.3691 19Z" stroke="#8F37F7" stroke-width="2.5" stroke-linecap="round" stroke-linejoin="round"/>
<path d="M20.3691 30.6901V31.85C20.3691 31.9328 20.302 32 20.2191 32H12.5191C12.4363 32 12.3691 31.9328 12.3691 31.85V30.6901C12.3691 30.5676 12.4141 30.4494 12.4954 30.3579L15.7712 26.6727C16.0894 26.3147 16.6488 26.3147 16.9671 26.6727L20.2428 30.3579C20.3242 30.4494 20.3691 30.5676 20.3691 30.6901Z" fill="#8F37F7"/>
<path d="M16.3691 18L23.3691 13H9.36914L16.3691 18Z" fill="#8F37F7"/>
<path d="M16.3691 28V19" stroke="#8F37F7" stroke-width="2.5" stroke-linecap="round" stroke-linejoin="round"/>
</g>
</g>
<path d="M45.49 29.95C43.96 29.95 42.615 29.725 41.455 29.275C40.305 28.825 39.335 28.25 38.545 27.55C37.755 26.84 37.14 26.1 36.7 25.33L40.15 22.93C40.39 23.43 40.73 23.925 41.17 24.415C41.61 24.905 42.195 25.31 42.925 25.63C43.655 25.95 44.57 26.11 45.67 26.11C46.71 26.11 47.545 25.96 48.175 25.66C48.815 25.36 49.275 24.975 49.555 24.505C49.845 24.035 49.99 23.54 49.99 23.02C49.99 22.33 49.785 21.8 49.375 21.43C48.975 21.06 48.455 20.805 47.815 20.665C47.175 20.515 46.5 20.43 45.79 20.41C45.1 20.39 44.6 20.375 44.29 20.365C43.99 20.355 43.785 20.35 43.675 20.35C43.575 20.35 43.48 20.35 43.39 20.35V16.51C43.52 16.51 43.71 16.51 43.96 16.51C44.22 16.51 44.48 16.51 44.74 16.51C45.01 16.5 45.23 16.49 45.4 16.48C46.45 16.43 47.325 16.2 48.025 15.79C48.735 15.38 49.09 14.74 49.09 13.87C49.09 13.07 48.775 12.435 48.145 11.965C47.525 11.495 46.69 11.26 45.64 11.26C44.65 11.26 43.765 11.475 42.985 11.905C42.215 12.325 41.65 12.79 41.29 13.3L38.5 10.3C39.25 9.52 40.255 8.85 41.515 8.29C42.775 7.73 44.19 7.45 45.76 7.45C46.71 7.45 47.64 7.575 48.55 7.825C49.46 8.065 50.28 8.44 51.01 8.95C51.74 9.45 52.32 10.095 52.75 10.885C53.19 11.675 53.41 12.62 53.41 13.72C53.41 14.65 53.245 15.53 52.915 16.36C52.585 17.18 52.11 17.87 51.49 18.43C52.39 18.83 53.085 19.41 53.575 20.17C54.065 20.93 54.31 21.88 54.31 23.02C54.31 24.45 53.91 25.685 53.11 26.725C52.32 27.755 51.255 28.55 49.915 29.11C48.585 29.67 47.11 29.95 45.49 29.95ZM61.3598 29.95C60.1998 29.95 59.2148 29.73 58.4048 29.29C57.6048 28.84 56.9948 28.245 56.5748 27.505C56.1648 26.755 55.9598 25.93 55.9598 25.03C55.9598 24.28 56.0748 23.595 56.3048 22.975C56.5348 22.355 56.9048 21.81 57.4148 21.34C57.9348 20.86 58.6298 20.46 59.4998 20.14C60.0998 19.92 60.8148 19.725 61.6448 19.555C62.4748 19.385 63.4148 19.225 64.4648 19.075C65.5148 18.915 66.6698 18.74 67.9298 18.55L66.4598 19.36C66.4598 18.4 66.2298 17.695 65.7698 17.245C65.3098 16.795 64.5398 16.57 63.4598 16.57C62.8598 16.57 62.2348 16.715 61.5848 17.005C60.9348 17.295 60.4798 17.81 60.2198 18.55L56.5298 17.38C56.9398 16.04 57.7098 14.95 58.8398 14.11C59.9698 13.27 61.5098 12.85 63.4598 12.85C64.8898 12.85 66.1598 13.07 67.2698 13.51C68.3798 13.95 69.2198 14.71 69.7898 15.79C70.1098 16.39 70.2998 16.99 70.3598 17.59C70.4198 18.19 70.4498 18.86 70.4498 19.6V29.5H66.8798V26.17L67.3898 26.86C66.5998 27.95 65.7448 28.74 64.8248 29.23C63.9148 29.71 62.7598 29.95 61.3598 29.95ZM62.2298 26.74C62.9798 26.74 63.6098 26.61 64.1198 26.35C64.6398 26.08 65.0498 25.775 65.3498 25.435C65.6598 25.095 65.8698 24.81 65.9798 24.58C66.1898 24.14 66.3098 23.63 66.3398 23.05C66.3798 22.46 66.3998 21.97 66.3998 21.58L67.5998 21.88C66.3898 22.08 65.4098 22.25 64.6598 22.39C63.9098 22.52 63.3048 22.64 62.8448 22.75C62.3848 22.86 61.9798 22.98 61.6298 23.11C61.2298 23.27 60.9048 23.445 60.6548 23.635C60.4148 23.815 60.2348 24.015 60.1148 24.235C60.0048 24.455 59.9498 24.7 59.9498 24.97C59.9498 25.34 60.0398 25.66 60.2198 25.93C60.4098 26.19 60.6748 26.39 61.0148 26.53C61.3548 26.67 61.7598 26.74 62.2298 26.74ZM82.87 29.5V24.25C82.3 24.53 81.67 24.745 80.98 24.895C80.3 25.045 79.59 25.12 78.85 25.12C77.17 25.12 75.835 24.74 74.845 23.98C73.865 23.22 73.23 22.12 72.94 20.68C72.86 20.27 72.8 19.845 72.76 19.405C72.73 18.965 72.71 18.565 72.7 18.205C72.7 17.835 72.7 17.55 72.7 17.35V13.3H76.84V17.35C76.84 17.54 76.85 17.85 76.87 18.28C76.89 18.7 76.95 19.12 77.05 19.54C77.23 20.24 77.535 20.745 77.965 21.055C78.405 21.365 79.03 21.52 79.84 21.52C80.53 21.52 81.12 21.43 81.61 21.25C82.11 21.06 82.53 20.83 82.87 20.56V13.3H86.98V29.5H82.87ZM97.9581 29.95C96.2981 29.95 94.8331 29.595 93.5631 28.885C92.3031 28.165 91.3131 27.18 90.5931 25.93C89.8831 24.67 89.5281 23.23 89.5281 21.61C89.5281 19.84 89.8781 18.3 90.5781 16.99C91.2781 15.68 92.2431 14.665 93.4731 13.945C94.7031 13.215 96.1181 12.85 97.7181 12.85C99.4181 12.85 100.863 13.25 102.053 14.05C103.243 14.85 104.123 15.975 104.693 17.425C105.263 18.875 105.463 20.58 105.293 22.54H101.258V21.04C101.258 19.39 100.993 18.205 100.463 17.485C99.9431 16.755 99.0881 16.39 97.8981 16.39C96.5081 16.39 95.4831 16.815 94.8231 17.665C94.1731 18.505 93.8481 19.75 93.8481 21.4C93.8481 22.91 94.1731 24.08 94.8231 24.91C95.4831 25.73 96.4481 26.14 97.7181 26.14C98.5181 26.14 99.2031 25.965 99.7731 25.615C100.343 25.265 100.778 24.76 101.078 24.1L105.158 25.27C104.548 26.75 103.583 27.9 102.263 28.72C100.953 29.54 99.5181 29.95 97.9581 29.95ZM92.5881 22.54V19.51H103.328V22.54H92.5881ZM107.9 29.5L107.93 13.3H112.07V21.1L117.56 13.3H122.6L116.75 21.4L122.99 29.5H117.68L112.07 21.7V29.5H107.9ZM128.233 29.95C127.073 29.95 126.088 29.73 125.278 29.29C124.478 28.84 123.868 28.245 123.448 27.505C123.038 26.755 122.833 25.93 122.833 25.03C122.833 24.28 122.948 23.595 123.178 22.975C123.408 22.355 123.778 21.81 124.288 21.34C124.808 20.86 125.503 20.46 126.373 20.14C126.973 19.92 127.688 19.725 128.518 19.555C129.348 19.385 130.288 19.225 131.338 19.075C132.388 18.915 133.543 18.74 134.803 18.55L133.333 19.36C133.333 18.4 133.103 17.695 132.643 17.245C132.183 16.795 131.413 16.57 130.333 16.57C129.733 16.57 129.108 16.715 128.458 17.005C127.808 17.295 127.353 17.81 127.093 18.55L123.403 17.38C123.813 16.04 124.583 14.95 125.713 14.11C126.843 13.27 128.383 12.85 130.333 12.85C131.763 12.85 133.033 13.07 134.143 13.51C135.253 13.95 136.093 14.71 136.663 15.79C136.983 16.39 137.173 16.99 137.233 17.59C137.293 18.19 137.323 18.86 137.323 19.6V29.5H133.753V26.17L134.263 26.86C133.473 27.95 132.618 28.74 131.698 29.23C130.788 29.71 129.633 29.95 128.233 29.95ZM129.103 26.74C129.853 26.74 130.483 26.61 130.993 26.35C131.513 26.08 131.923 25.775 132.223 25.435C132.533 25.095 132.743 24.81 132.853 24.58C133.063 24.14 133.183 23.63 133.213 23.05C133.253 22.46 133.273 21.97 133.273 21.58L134.473 21.88C133.263 22.08 132.283 22.25 131.533 22.39C130.783 22.52 130.178 22.64 129.718 22.75C129.258 22.86 128.853 22.98 128.503 23.11C128.103 23.27 127.778 23.445 127.528 23.635C127.288 23.815 127.108 24.015 126.988 24.235C126.878 24.455 126.823 24.7 126.823 24.97C126.823 25.34 126.913 25.66 127.093 25.93C127.283 26.19 127.548 26.39 127.888 26.53C128.228 26.67 128.633 26.74 129.103 26.74ZM148.213 11.5C147.333 11.5 146.533 11.285 145.813 10.855C145.093 10.425 144.518 9.85 144.088 9.13C143.658 8.41 143.443 7.61 143.443 6.73H146.593C146.593 7.18 146.748 7.565 147.058 7.885C147.378 8.195 147.763 8.35 148.213 8.35C148.663 8.35 149.043 8.195 149.353 7.885C149.673 7.565 149.833 7.18 149.833 6.73H152.983C152.983 7.61 152.768 8.41 152.338 9.13C151.908 9.85 151.333 10.425 150.613 10.855C149.893 11.285 149.093 11.5 148.213 11.5ZM154.903 13.3V29.5H151.003V19.6L143.683 29.5H140.443V13.3H144.343V22.87L151.693 13.3H154.903ZM162.316 29.5V16.9H157.006V13.3H171.706V16.9H166.396V29.5H162.316ZM181.337 29.95C179.677 29.95 178.212 29.595 176.942 28.885C175.682 28.165 174.692 27.18 173.972 25.93C173.262 24.67 172.907 23.23 172.907 21.61C172.907 19.84 173.257 18.3 173.957 16.99C174.657 15.68 175.622 14.665 176.852 13.945C178.082 13.215 179.497 12.85 181.097 12.85C182.797 12.85 184.242 13.25 185.432 14.05C186.622 14.85 187.502 15.975 188.072 17.425C188.642 18.875 188.842 20.58 188.672 22.54H184.637V21.04C184.637 19.39 184.372 18.205 183.842 17.485C183.322 16.755 182.467 16.39 181.277 16.39C179.887 16.39 178.862 16.815 178.202 17.665C177.552 18.505 177.227 19.75 177.227 21.4C177.227 22.91 177.552 24.08 178.202 24.91C178.862 25.73 179.827 26.14 181.097 26.14C181.897 26.14 182.582 25.965 183.152 25.615C183.722 25.265 184.157 24.76 184.457 24.1L188.537 25.27C187.927 26.75 186.962 27.9 185.642 28.72C184.332 29.54 182.897 29.95 181.337 29.95ZM175.967 22.54V19.51H186.707V22.54H175.967Z" fill="#8F37F7"/>
<defs>
<clipPath id="clip0_1290_5234">
<rect x="0.5" y="2.5" width="32" height="32" rx="8" fill="white"/>
</clipPath>
<clipPath id="clip1_1290_5234">
<rect width="32" height="32" fill="white" transform="translate(0.5 2.5)"/>
</clipPath>
</defs>
</svg>
