<svg width="20" height="21" viewBox="0 0 20 21" fill="none" xmlns="http://www.w3.org/2000/svg">
<path d="M8.33301 13L8.33301 10.5" stroke="black" stroke-width="1.5" stroke-linecap="round"/>
<path d="M6.66667 4.66675L5 8.00008M13.3333 4.66675L15 8.00008" stroke="black" stroke-width="1.5" stroke-linecap="round"/>
<path d="M11.667 13L11.667 10.5" stroke="black" stroke-width="1.5" stroke-linecap="round"/>
<path d="M2.5 8V8C2.67028 8 2.75542 8 2.83201 8.00589C3.60073 8.06503 4.267 8.56076 4.54453 9.28006C4.57219 9.35173 4.59665 9.43328 4.64558 9.59638L5.81148 13.4827C6.22344 14.8559 6.42942 15.5425 6.96087 15.9379C7.49232 16.3333 8.20914 16.3333 9.64279 16.3333H10.3572C11.7909 16.3333 12.5077 16.3333 13.0391 15.9379C13.5706 15.5425 13.7766 14.8559 14.1885 13.4827L15.3544 9.59638C15.4033 9.43328 15.4278 9.35173 15.4555 9.28006C15.733 8.56076 16.3993 8.06503 17.168 8.00589C17.2446 8 17.3297 8 17.5 8V8" stroke="black" stroke-width="1.5" stroke-linecap="round"/>
<path d="M2.5 8L17.5 8" stroke="black" stroke-width="1.5" stroke-linecap="round"/>
</svg>
