<svg width="22" height="23" viewBox="0 0 22 23" fill="none" xmlns="http://www.w3.org/2000/svg">
<g clip-path="url(#clip0_575_259)">
<path d="M18.6239 4.50581C17.1976 3.85109 15.6924 3.38422 14.1459 3.11687C14.1319 3.11425 14.1173 3.11613 14.1044 3.12224C14.0915 3.12834 14.0808 3.13837 14.074 3.15088C13.8805 3.49491 13.6663 3.94362 13.5163 4.29626C11.8254 4.04307 10.143 4.04307 8.48678 4.29626C8.33681 3.93573 8.1148 3.49491 7.92055 3.15088C7.91336 3.13865 7.90264 3.12887 7.88981 3.12282C7.87697 3.11677 7.86261 3.11473 7.8486 3.11697C6.30198 3.38369 4.79664 3.85052 3.3705 4.50572C3.35829 4.51093 3.34801 4.5198 3.34107 4.53111C0.488954 8.79214 -0.292413 12.9484 0.090937 17.0531C0.0920209 17.0632 0.0951107 17.0729 0.100023 17.0818C0.104936 17.0906 0.111572 17.0983 0.119537 17.1046C2.00127 18.4865 3.82406 19.3255 5.61303 19.8815C5.62694 19.8857 5.64179 19.8855 5.65558 19.8809C5.66937 19.8764 5.68146 19.8678 5.69021 19.8562C6.11335 19.2784 6.49055 18.669 6.81405 18.0282C6.81849 18.0194 6.82103 18.0098 6.82149 18C6.82196 17.9902 6.82033 17.9803 6.81673 17.9712C6.81313 17.962 6.80763 17.9538 6.80059 17.9469C6.79356 17.94 6.78515 17.9347 6.77591 17.9313C6.17751 17.7043 5.6078 17.4276 5.05973 17.1134C5.04973 17.1075 5.04134 17.0993 5.03528 17.0894C5.02923 17.0795 5.0257 17.0683 5.02501 17.0567C5.02433 17.0451 5.0265 17.0336 5.03134 17.023C5.03618 17.0125 5.04353 17.0033 5.05276 16.9963C5.16808 16.9099 5.28349 16.82 5.39358 16.7292C5.40336 16.7211 5.41521 16.7159 5.42777 16.7142C5.44034 16.7125 5.45313 16.7144 5.46471 16.7196C9.0652 18.3634 12.963 18.3634 16.521 16.7196C16.5326 16.7141 16.5455 16.7119 16.5582 16.7135C16.571 16.715 16.583 16.7202 16.593 16.7283C16.7031 16.819 16.8185 16.9099 16.9347 16.9963C16.9439 17.0033 16.9513 17.0124 16.9562 17.0228C16.9611 17.0333 16.9634 17.0448 16.9628 17.0564C16.9622 17.068 16.9588 17.0792 16.9528 17.0891C16.9469 17.099 16.9386 17.1073 16.9286 17.1133C16.3804 17.4335 15.806 17.7069 15.2117 17.9304C15.2025 17.9339 15.1941 17.9394 15.1871 17.9463C15.1801 17.9533 15.1747 17.9617 15.1712 17.971C15.1677 17.9802 15.1661 17.9901 15.1667 17.9999C15.1672 18.0098 15.1699 18.0194 15.1744 18.0282C15.5048 18.668 15.882 19.2774 16.2973 19.8553C16.3058 19.8672 16.3178 19.8762 16.3317 19.8809C16.3455 19.8856 16.3605 19.8858 16.3745 19.8815C18.1721 19.3254 19.9949 18.4864 21.8766 17.1046C21.8847 17.0987 21.8915 17.0911 21.8964 17.0824C21.9014 17.0736 21.9044 17.064 21.9053 17.054C22.364 12.3084 21.137 8.18623 18.6525 4.53193C18.6464 4.52006 18.6363 4.51085 18.6239 4.50581ZM7.35167 14.5538C6.26771 14.5538 5.37451 13.5585 5.37451 12.3363C5.37451 11.1142 6.25039 10.119 7.35176 10.119C8.46166 10.119 9.34615 11.123 9.32883 12.3364C9.32883 13.5585 8.45295 14.5538 7.35167 14.5538ZM14.6619 14.5538C13.5779 14.5538 12.6847 13.5585 12.6847 12.3363C12.6847 11.1142 13.5605 10.119 14.6619 10.119C15.7718 10.119 16.6563 11.123 16.639 12.3364C16.639 13.5585 15.7718 14.5538 14.6619 14.5538Z" fill="black"/>
</g>
<defs>
<clipPath id="clip0_575_259">
<rect width="22" height="22" fill="white" transform="translate(0 0.5)"/>
</clipPath>
</defs>
</svg>
