<svg width="20" height="21" viewBox="0 0 20 21" fill="none" xmlns="http://www.w3.org/2000/svg">
<path d="M11 14.5L15 10.5M15 10.5L11 6.5M15 10.5H1M6 14.5V15.5C6 16.2956 6.31607 17.0587 6.87868 17.6213C7.44129 18.1839 8.20435 18.5 9 18.5H16C16.7956 18.5 17.5587 18.1839 18.1213 17.6213C18.6839 17.0587 19 16.2956 19 15.5V5.5C19 4.70435 18.6839 3.94129 18.1213 3.37868C17.5587 2.81607 16.7956 2.5 16 2.5H9C8.20435 2.5 7.44129 2.81607 6.87868 3.37868C6.31607 3.94129 6 4.70435 6 5.5V6.5" stroke="black" stroke-width="2" stroke-linecap="round" stroke-linejoin="round"/>
</svg>
