<svg width="22" height="23" viewBox="0 0 22 23" fill="none" xmlns="http://www.w3.org/2000/svg">
<path d="M2.32366 10.1167L18.732 3.91686C19.2801 3.71002 19.8918 3.9858 20.0986 4.53384C20.1711 4.72653 20.1869 4.93515 20.1428 5.1358L17.3142 18.0429C17.171 18.6971 16.5248 19.1116 15.8707 18.9675C15.7081 18.9322 15.5552 18.8632 15.4199 18.766L9.78671 14.6946C9.44809 14.4498 9.37118 13.9759 9.61694 13.6365C9.64343 13.6003 9.6735 13.5658 9.70531 13.534L15.4977 7.9679C15.6179 7.85211 15.6215 7.6603 15.5057 7.53919C15.4058 7.43578 15.2467 7.41633 15.1247 7.49411L7.22946 12.506C6.76186 12.803 6.18466 12.8702 5.66049 12.6889L2.34399 11.5416C1.94888 11.4055 1.73938 10.9732 1.87551 10.5781C1.94976 10.366 2.11328 10.1963 2.32366 10.1167Z" fill="black"/>
</svg>
